<?xml version="1.0" encoding="utf-8"?>
<!-- Generator: Adobe Illustrator 23.0.4, SVG Export Plug-In . SVG Version: 6.00 Build 0)  -->
<svg version="1.1" id="Layer_1" xmlns="http://www.w3.org/2000/svg" xmlns:xlink="http://www.w3.org/1999/xlink" x="0px" y="0px"
	 viewBox="0 0 420 420" style="enable-background:new 0 0 420 420;" xml:space="preserve">
<style type="text/css">
	.st0{fill:#FFFFFF;}
</style>
<title>house</title>
<path class="st0" d="M395.3,420H24.7C11.3,420,0,409.7,0,397.6V178.3C0,168,6.7,155,14.9,148L192.5,6.1c4.8-3.9,11.1-6,17.5-6.1
	c6.6,0.1,12.9,2.2,18,6.1L405.1,148c8.8,7,14.9,20.1,14.9,30.3v219.4C420,410,408.9,420,395.3,420L395.3,420z M210,14.9
	c-2.5,0-4.9,0.8-6.7,2.3L26.2,159.1c-5.1,4.2-9.8,13.1-9.8,19.2v219.3c0,4.1,3.5,7.4,8,7.5c0.1,0,0.2,0,0.2,0h370.6
	c4.5,0.1,8.2-3.2,8.2-7.2c0-0.1,0-0.1,0-0.2V178.3c0-6.1-4.6-15.4-9.8-19.2L217.2,17.3C215.1,15.8,212.6,15,210,14.9z"/>
</svg>
