<?xml version="1.0" encoding="utf-8"?>
<!-- Generator: Adobe Illustrator 23.0.4, SVG Export Plug-In . SVG Version: 6.00 Build 0)  -->
<svg version="1.1" id="Layer_1" xmlns="http://www.w3.org/2000/svg" xmlns:xlink="http://www.w3.org/1999/xlink" x="0px" y="0px"
	 viewBox="0 0 100 240" style="enable-background:new 0 0 100 240;" xml:space="preserve">
<style type="text/css">
	.st0{fill:#FFFFFF;}
</style>
<path class="st0" d="M14.3,174.5H3.6c-2,0-3.6-1.6-3.6-3.6v-69.1c0-14.1,11.2-25.4,25-25.4h50c13.8,0,25,11.4,25,25.4v69.1
	c0,2-1.6,3.6-3.6,3.6H85.7v61.8c0,2-1.6,3.6-3.6,3.6H17.9c-2,0-3.6-1.6-3.6-3.6V174.5z M53.6,232.7h25v-61.8c0-2,1.6-3.6,3.6-3.6
	h10.7v-65.5c0-10-8-18.2-17.8-18.2H25c-9.9,0-17.8,8.1-17.8,18.2v65.5h10.7c2,0,3.6,1.6,3.6,3.6v61.8h25v-47.3c0-2,1.6-3.6,3.6-3.6
	s3.6,1.6,3.6,3.6V232.7z M50,65.5c-17.8,0-32.1-14.7-32.1-32.7S32.2,0,50,0s32.1,14.7,32.1,32.7S67.8,65.5,50,65.5z M50,58.2
	c13.8,0,25-11.4,25-25.5S63.8,7.3,50,7.3S25,18.7,25,32.7S36.2,58.2,50,58.2z"/>
</svg>
